# AST/ASF file generated using VICON BodyLanguage
# -----------------------------------------------
:version 1.10
:name VICON
:units
  mass 1.0
  length 0.45
  angle deg
:documentation
   .ast/.asf automatically generated from VICON data using
   VICON BodyBuilder and BodyLanguage model FoxedUp or BRILLIANT.MOD
:root
   order TX TY TZ RX RY RZ
   axis XYZ
   position 0 0 0  
   orientation 0 0 0 
:bonedata
  begin
     id 1 
     name lhipjoint
     direction 0.521452 -0.77106 0.36545 
     length 2.0933 
     axis 0 0 0  XYZ
  end
  begin
     id 2 
     name lfemur
     direction 0.34202 -0.939693 0  
     length 6.83441  
     axis 0 0 20  XYZ
    dof rx ry rz
    limits (-160.0 20.0)
           (-70.0 70.0)
           (-60.0 70.0)
  end
  begin
     id 3 
     name ltibia
     direction 0.34202 -0.939693 0   
     length 7.28749   
     axis 0 0 20   XYZ
    dof rx
    limits (-10.0 170.0)
  end
  begin
     id 4 
     name lfoot
     direction 0.100608 -0.276418 0.955757   
     length 1.52195   
     axis -90 7.62852e-016 20   XYZ
    dof rx rz
    limits (-45.0 90.0)
           (-70.0 20.0)
  end
  begin
     id 5 
     name ltoes
     direction 1.53558e-011 -4.21907e-011 1   
     length 0.770459   
     axis -90 7.62852e-016 20   XYZ
    dof rx
    limits (-90.0 20.0)
  end
  begin
     id 6 
     name rhipjoint
     direction -0.488071 -0.788702 0.373812   
     length 2.04648  
     axis 0 0 0  XYZ 
  end
  begin
     id 7 
     name rfemur
     direction -0.34202 -0.939693 0   
     length 6.92583   
     axis 0 0 -20   XYZ
    dof rx ry rz
    limits (-160.0 20.0)
           (-70.0 70.0)
           (-70.0 60.0)
  end
  begin
     id 8 
     name rtibia
     direction -0.34202 -0.939693 0   
     length 7.41043   
     axis 0 0 -20   XYZ
    dof rx
    limits (-10.0 170.0)
 end
 begin
     id 9 
     name rfoot
     direction -0.0784433 -0.215521 0.973343   
     length 1.67708  
     axis -90 -7.62852e-016 -20   XYZ
    dof rx rz
    limits (-45.0 90.0)
           (-20.0 70.0)
  end
  begin
     id 10 
     name rtoes
     direction -1.53551e-011 -4.21842e-011 1   
     length 0.849787   
     axis -90 -7.62852e-016 -20   XYZ
    dof rx
    limits (-90.0 20.0)
  end
  begin
     id 11 
     name lowerback
     direction -0.0122332 0.997575 -0.0685192   
     length 1.98724   
     axis 0 0 0   XYZ
    dof rx ry rz
    limits (-20.0 45.0)
           (-30.0 30.0)
           (-30.0 30.0)
  end
  begin
     id 12 
     name upperback
     direction 0.0182347 0.999724 -0.0148421   
     length 1.99029   
     axis 0 0 0   XYZ
    dof rx ry rz
    limits (-20.0 45.0)
           (-30.0 30.0)
           (-30.0 30.0)
  end
  begin
     id 13 
     name thorax
     direction 0.0242908 0.99956 0.0170184   
     length 1.99573   
     axis 0 0 0   XYZ
    dof rx ry rz
    limits (-20.0 45.0)
           (-30.0 30.0)
           (-30.0 30.0)
  end
  begin
     id 14 
     name lowerneck
     direction 0.0654488 0.985533 0.156338   
     length 1.4285   
     axis 0 0 0   XYZ
    dof rx ry rz
    limits (-20.0 45.0)
           (-30.0 30.0)
           (-30.0 30.0)
  end
  begin
     id 15 
     name upperneck
     direction -0.02953 0.998556 -0.0448842   
     length 1.44709   
     axis 0 0 0   XYZ
    dof rx ry rz
    limits (-20.0 45.0)
           (-30.0 30.0)
           (-30.0 30.0)
  end
  begin
     id 16
     name head
     direction -0.0155588 0.999386 -0.0314063  
     length 1.44689  
     axis 0 0 0   XYZ
    dof rx ry rz
    limits (-20.0 45.0)
           (-30.0 30.0)
           (-30.0 30.0)
  end
  begin
     id 17 
     name lclavicle
     direction 0.968229 0.236071 -0.0824755  
     length 3.60593  
     axis 0 0 0   XYZ
    dof ry rz
    limits (-20.0 10.0)
           (0.0 20.0)
  end
  begin
     id 18 
     name lhumerus
     direction 1 -4.48968e-011 7.8138e-029   
     length 5.06035   
     axis 180 -30 -90   XYZ
    dof rx ry rz
    limits (-60.0 90.0)
           (-90.0 90.0)
           (-90.0 90.0)
  end
  begin
     id 19
     name lradius
     direction 1 -4.48967e-011 9.02887e-028   
     length 3.1478   
     axis 180 -30 -90   XYZ
    dof rx
    limits (-10.0 170.0)
  end
  begin
     id 20
     name lwrist
     direction 1 -4.48961e-011 7.20928e-028   
     length 1.5739   
     axis -5.52449e-016 90 90   XYZ
    dof ry
    limits (-180.0 0.0)
 end
  begin
     id 21 
     name lhand
     direction 1 -4.48972e-011 1.44186e-027   
     length 0.606747   
     axis -9.20027e-016 90 90   XYZ
    dof rx rz
    limits (-90.0 90.0)
           (-45.0 45.0)
  end
  begin
     id 22 
     name lfingers
     direction 1 -4.48943e-011 2.88371e-027   
     length 0.489175   
     axis -1.84005e-015 90 90   XYZ
    dof rx
    limits (0.0 90.0)
  end
  begin
     id 23
     name lthumb
     direction 0.707107 -6.34917e-011 0.707107   
     length 0.70236   
     axis -90 45 2.85299e-015   XYZ
    dof rx rz
    limits (-45.0 45.0)
           (-45.0 45.0)
  end
  begin
     id 24 
     name rclavicle
     direction -0.978165 0.207816 0.0022268   
     length 3.35425  
     axis 0 0 0   XYZ 
    dof ry rz
    limits (-10.0 20.0)
           (-20.0 0.0)
  end
  begin
     id 25 
     name rhumerus
     direction -1 -4.48964e-011 -4.02159e-027  
     length 5.12273   
     axis 180 30 90   XYZ
    dof rx ry rz
    limits (-90.0 60.0)
           (-90.0 90.0)
           (-90.0 90.0)
  end
  begin
     id 26 
     name rradius
     direction -1 -4.48966e-011 1.62746e-027   
     length 3.422   
     axis 180 30 90   XYZ
    dof rx
    limits (-10.0 170.0)
  end
  begin
     id 27 
     name rwrist
     direction -1 -4.4896e-011 7.20928e-028   
     length 1.711   
     axis -5.52449e-016 -90 -90   XYZ
    dof ry
    limits (-180.0 0.0)
  end
  begin
     id 28
     name rhand
     direction -1 -4.48979e-011 1.44186e-027   
     length 0.704599   
     axis -9.20027e-016 -90 -90   XYZ
    dof rx rz
    limits (-90.0 90.0)
           (-45.0 45.0)
  end
  begin
     id 29
     name rfingers
     direction -1 -4.48962e-011 2.88371e-027   
     length 0.568066   
     axis -1.84005e-015 -90 -90   XYZ
    dof rx
    limits (0.0 90.0)
  end
  begin
     id 30
     name rthumb
     direction -0.707107 -6.34949e-011 0.707107   
     length 0.815633   
     axis -90 -45 -2.85299e-015   XYZ
    dof rx rz
    limits (-45.0 45.0)
           (-45.0 45.0)
  end
:hierarchy
  begin
    root lhipjoint rhipjoint lowerback
    lhipjoint lfemur
    lfemur ltibia
    ltibia lfoot
    lfoot ltoes
    rhipjoint rfemur
    rfemur rtibia
    rtibia rfoot
    rfoot rtoes
    lowerback upperback
    upperback thorax
    thorax lowerneck lclavicle rclavicle
    lowerneck upperneck
    upperneck head
    lclavicle lhumerus
    lhumerus lradius
    lradius lwrist
    lwrist lhand lthumb
    lhand lfingers
    rclavicle rhumerus
    rhumerus rradius
    rradius rwrist
    rwrist rhand rthumb
    rhand rfingers
  end

#!OML:ASF E:\id_vita\Project 1\Capture day 1\Session 1\Male1.ASF
:FULLY-SPECIFIED
:DEGREES
162
root -23.1952 15.9838 -1.10111 -166.3 87.9063 -171.126
lowerback -6.53854 0.813394 -2.1847
upperback -1.46383 1.26603 -0.169517
thorax 2.11231 0.634141 1.15611
lowerneck 0.960655 11.4212 19.8192
upperneck 2.87677 15.3605 -2.7382
head 2.38345 7.88746 -3.30384
rclavicle 2.71838e-014 -7.95139e-016
rhumerus -31.0786 -23.9925 -78.5929
rradius 14.4865
rwrist 19.4301
rhand -19.8485 37.1051
rfingers 7.12502
rthumb 6.48608 7.22443
lclavicle 2.71838e-014 -7.95139e-016
lhumerus -23.8546 7.46015 86.6035
lradius 11.2165
lwrist -14.0385
lhand -12.0046 44.1343
lfingers 7.12502
lthumb 14.0526 73.6393
rfemur -4.78229 4.78238 14.5803
rtibia 19.6068
rfoot -13.4281 -19.7041
rtoes -16.5806
lfemur -10.7133 -5.67271 -15.7448
ltibia 27.9828
lfoot -22.5156 13.964
ltoes -14.7923
163
root -23.1911 15.985 -1.10134 -172.024 87.912 -176.851
lowerback -6.55156 0.799779 -2.54662
upperback -1.49388 1.27144 -0.103238
thorax 2.07886 0.636049 1.42766
lowerneck 1.13803 11.4696 19.856
upperneck 2.6649 15.4687 -2.94185
head 2.32075 7.92811 -3.37904
rclavicle -1.48654e-014 -3.77691e-015
rhumerus -31.0561 -23.6306 -78.5237
rradius 14.5819
rwrist 19.154
rhand -19.9924 36.6989
rfingers 7.12502
rthumb 6.34717 6.81397
lclavicle -1.48654e-014 -3.77691e-015
lhumerus -23.88 7.61574 86.739
lradius 11.1752
lwrist -14.0889
lhand -11.7291 44.0035
lfingers 7.12502
lthumb 14.318 73.4898
rfemur -4.78703 4.59104 14.3541
rtibia 19.6996
rfoot -13.4063 -19.6303
rtoes -16.9906
lfemur -10.6574 -5.76943 -15.987
ltibia 27.9096
lfoot -22.5037 14.0539
ltoes -14.5634
164
root -23.1889 15.9858 -1.10295 -178.54 87.8488 -183.386
lowerback -6.56103 0.762749 -2.96385
upperback -1.53431 1.24871 -0.0108693
thorax 2.03221 0.624295 1.75479
lowerneck 1.38569 11.4882 19.7997
upperneck 2.37106 15.5524 -3.08396
head 2.20771 7.95312 -3.43458
rclavicle 1.13928e-014 3.97569e-016
rhumerus -31.0721 -23.2081 -78.4074
rradius 14.7195
rwrist 18.7923
rhand -19.9588 36.3622
rfingers 7.12502
rthumb 6.37955 6.47826
lclavicle 1.13928e-014 3.97569e-016
lhumerus -23.9222 7.90518 86.8708
lradius 11.131
lwrist -14.2507
lhand -11.4216 43.7864
lfingers 7.12502
lthumb 14.6143 73.2514
rfemur -4.80914 4.41382 14.0869
rtibia 19.7703
rfoot -13.2462 -19.6547
rtoes -17.7258
lfemur -10.6499 -5.9173 -16.2609
ltibia 27.8588
lfoot -22.4553 14.0518
ltoes -14.4885
165
root -23.1915 15.9862 -1.10111 -178.779 87.777 -183.604
lowerback -6.47703 0.751488 -3.16894
upperback -1.55798 1.24078 0.123318
thorax 1.95385 0.620948 2.00565
lowerneck 1.43066 11.5311 19.6642
upperneck 2.26569 15.6183 -3.06654
head 2.16387 7.979 -3.41479
rclavicle 1.125e-014 4.77083e-015
rhumerus -31.1027 -23.0577 -78.212
rradius 14.7887
rwrist 18.7164
rhand -19.8582 36.4628
rfingers 7.12502
rthumb 6.47674 6.58182
lclavicle 1.125e-014 4.77083e-015
lhumerus -23.9148 7.88104 87.0673
lradius 11.1328
lwrist -14.1543
lhand -11.681 43.7575
lfingers 7.12502
lthumb 14.3644 73.2405
rfemur -4.79843 4.42652 14.0968
rtibia 19.8109
rfoot -13.2061 -19.7309
rtoes -18.0418
lfemur -10.6564 -5.79664 -16.2487
ltibia 27.8384
lfoot -22.4432 13.8206
ltoes -14.4182
166
root -23.1926 15.9856 -1.1001 -175.201 87.7544 -180.015
lowerback -6.4308 0.810091 -3.10919
upperback -1.57002 1.31107 0.197952
thorax 1.91121 0.656983 2.05339
lowerneck 1.18708 11.5963 19.6608
upperneck 2.41488 15.6477 -2.9707
head 2.24275 8.00049 -3.36234
rclavicle -5.81135e-015 2.68359e-015
rhumerus -31.1064 -22.9192 -78.1838
rradius 14.8464
rwrist 18.5088
rhand -19.9392 36.783
rfingers 7.12502
rthumb 6.39855 6.89965
lclavicle -5.81135e-015 2.68359e-015
lhumerus -23.8741 7.09871 87.3947
lradius 11.2286
lwrist -13.4025
lhand -12.0844 43.9774
lfingers 7.12502
lthumb 13.9757 73.4876
rfemur -4.77808 4.39599 14.2805
rtibia 19.7996
rfoot -12.9701 -19.8744
rtoes -18.631
lfemur -10.6733 -5.72445 -16.0841
ltibia 27.8579
lfoot -22.4309 13.7522
ltoes -15.1828
167
root -23.1905 15.9834 -1.10158 -172.361 87.7081 -177.15
lowerback -6.42017 0.842927 -2.97158
upperback -1.57938 1.34475 0.220084
thorax 1.89641 0.674627 2.00118
lowerneck 1.10039 11.6059 19.8528
upperneck 2.42304 15.6434 -3.09641
head 2.28263 7.99862 -3.41687
rclavicle 4.1838e-015 2.5842e-015
rhumerus -31.1155 -22.7023 -78.2593
rradius 14.9254
rwrist 18.171
rhand -20.0563 36.8149
rfingers 7.12502
rthumb 6.28546 6.92817
lclavicle 4.1838e-015 2.5842e-015
lhumerus -23.8935 6.41873 87.6055
lradius 11.3473
lwrist -12.7019
lhand -12.1992 44.2281
lfingers 7.12502
lthumb 13.8651 73.7459
rfemur -4.7 4.45799 14.4089
rtibia 19.7502
rfoot -13.1099 -19.9043
rtoes -18.0373
lfemur -10.6652 -5.80252 -15.9702
ltibia 27.9048
lfoot -22.4728 13.8352
ltoes -15.0576
168
root -23.1878 15.9827 -1.10303 -172.084 87.6704 -176.834
lowerback -6.38799 0.862253 -2.91292
upperback -1.58928 1.36618 0.192084
thorax 1.8692 0.686117 1.94021
lowerneck 1.18016 11.5593 20.054
upperneck 2.20883 15.6065 -3.30215
head 2.23147 7.96963 -3.51814
rclavicle -2.20278e-014 -3.97569e-016
rhumerus -31.1502 -22.6976 -78.2902
rradius 14.9949
rwrist 18.0889
rhand -20.0921 36.6855
rfingers 7.12502
rthumb 6.25094 6.79777
lclavicle -2.20278e-014 -3.97569e-016
lhumerus -23.922 5.75341 87.7553
lradius 11.4987
lwrist -12.0494
lhand -11.8671 44.4832
lfingers 7.12502
lthumb 14.1851 73.9789
rfemur -4.61093 4.58404 14.4102
rtibia 19.6974
rfoot -13.5759 -19.8015
rtoes -16.648
lfemur -10.6246 -5.97669 -15.9692
ltibia 27.9481
lfoot -22.5656 13.9673
ltoes -15.1747
169
root -23.186 15.9848 -1.10354 -171.528 87.6559 -176.274
lowerback -6.35932 0.894772 -2.86676
upperback -1.62412 1.40617 0.169478
thorax 1.81688 0.707717 1.89295
lowerneck 1.30147 11.5283 20.0704
upperneck 1.85918 15.5995 -3.36315
head 2.10971 7.94905 -3.5601
rclavicle -1.4971e-014 -2.5842e-015
rhumerus -31.1642 -22.7486 -78.287
rradius 14.973
rwrist 18.0907
rhand -20.0205 36.7026
rfingers 7.12502
rthumb 6.32 6.81686
lclavicle -1.4971e-014 -2.5842e-015
lhumerus -23.9469 5.39263 87.8358
lradius 11.6063
lwrist -11.7311
lhand -11.5423 44.5706
lfingers 7.12502
lthumb 14.498 74.0441
rfemur -4.6017 4.39706 14.4568
rtibia 19.6581
rfoot -13.1444 -19.9318
rtoes -18.2796
lfemur -10.6088 -6.2138 -15.9523
ltibia 27.9743
lfoot -22.5863 14.1304
ltoes -14.7175
170
root -23.1844 15.9856 -1.10309 -171.031 87.6395 -175.804
lowerback -6.36578 0.893714 -2.85775
upperback -1.65905 1.40436 0.181823
thorax 1.78451 0.708075 1.90015
lowerneck 1.16784 11.5224 20.2356
upperneck 2.06261 15.5601 -3.47335
head 2.21027 7.93881 -3.59908
rclavicle -1.34987e-014 -3.37934e-015
rhumerus -31.1241 -22.7852 -78.2458
rradius 14.8635
rwrist 18.1274
rhand -19.8834 36.8875
rfingers 7.12502
rthumb 6.45239 7.0058
lclavicle -1.34987e-014 -3.37934e-015
lhumerus -23.9647 5.62495 87.773
lradius 11.615
lwrist -11.8907
lhand -11.4723 44.4452
lfingers 7.12502
lthumb 14.5654 73.9138
rfemur -4.62493 4.32478 14.4896
rtibia 19.6534
rfoot -12.8701 -20.0195
rtoes -19.155
lfemur -10.6341 -6.1849 -15.9192
ltibia 27.9767
lfoot -22.5096 14.0476
ltoes -14.8347
171
root -23.183 15.9839 -1.1047 -171.77 87.6164 -176.546
lowerback -6.35252 0.903506 -2.84523
upperback -1.68782 1.41686 0.159044
thorax 1.74772 0.715508 1.86992
lowerneck 1.08882 11.562 20.2755
upperneck 2.20932 15.5917 -3.37679
head 2.26623 7.96319 -3.56234
rclavicle -1.09456e-014 4.96962e-015
rhumerus -31.1402 -22.7455 -78.2666
rradius 14.8213
rwrist 18.2586
rhand -20.2104 36.8208
rfingers 7.12502
rthumb 6.13672 6.92965
lclavicle -1.09456e-014 4.96962e-015
lhumerus -24.0077 5.36066 87.8347
lradius 11.7076
lwrist -11.578
lhand -11.3527 44.4924
lfingers 7.12502
lthumb 14.6807 73.9526
rfemur -4.60686 4.595 14.4149
rtibia 19.6706
rfoot -13.4574 -19.8765
rtoes -16.9591
lfemur -10.6528 -6.04125 -15.9486
ltibia 27.9779
lfoot -22.4356 13.8588
ltoes -14.6905
172
root -23.1828 15.982 -1.10703 -173.424 87.6004 -178.168
lowerback -6.29591 0.922729 -2.84616
upperback -1.71263 1.44164 0.115997
thorax 1.69045 0.729194 1.82634
lowerneck 1.0341 11.6132 20.2607
upperneck 2.32991 15.6437 -3.21966
head 2.30355 7.99703 -3.50209
rclavicle -1.97698e-014 7.95139e-016
rhumerus -31.1942 -22.4837 -78.4196
rradius 14.8307
rwrist 18.6031
rhand -21.2151 36.1676
rfingers 7.12502
rthumb 5.16669 6.25058
lclavicle -1.97698e-014 7.95139e-016
lhumerus -24.0432 4.97612 87.9237
lradius 11.8073
lwrist -11.1973
lhand -11.352 44.7586
lfingers 7.12502
lthumb 14.6814 74.2188
rfemur -4.55139 4.73667 14.3092
rtibia 19.6641
rfoot -13.8702 -19.7249
rtoes -15.5353
lfemur -10.6312 -6.1475 -16.0442
ltibia 28.003
lfoot -22.3841 13.9781
ltoes -14.9038
173
root -23.1823 15.9806 -1.1073 -174.827 87.5989 -179.542
lowerback -6.2769 0.930636 -2.87823
upperback -1.70573 1.45396 0.0953469
thorax 1.68606 0.735191 1.82364
lowerneck 1.03672 11.637 20.2239
upperneck 2.16094 15.6786 -3.21486
head 2.25134 8.00534 -3.50015
rclavicle -7.79609e-015 -3.97569e-015
rhumerus -31.1781 -22.6561 -78.3154
rradius 14.9274
rwrist 18.312
rhand -20.8304 36.3523
rfingers 7.12502
rthumb 5.5381 6.44471
lclavicle -7.79609e-015 -3.97569e-015
lhumerus -24.0008 4.96489 87.9138
lradius 11.816
lwrist -11.194
lhand -11.3937 44.9979
lfingers 7.12502
lthumb 14.6412 74.461
rfemur -4.50654 4.59674 14.2588
rtibia 19.6254
rfoot -13.6195 -19.7806
rtoes -16.508
lfemur -10.6135 -6.25611 -16.1192
ltibia 28.0499
lfoot -22.3766 14.1483
ltoes -15.124
174
root -23.1805 15.9801 -1.10575 -172.978 87.5765 -177.663
lowerback -6.26248 0.928636 -2.80495
upperback -1.70667 1.44551 0.120529
thorax 1.6787 0.731182 1.8075
lowerneck 1.06119 11.6618 20.2419
upperneck 1.93424 15.7216 -3.26956
head 2.18766 8.01465 -3.52541
rclavicle 1.10108e-014 -3.57812e-015
rhumerus -31.1507 -22.2709 -78.5301
rradius 14.9207
rwrist 18.3977
rhand -21.9437 36.248
rfingers 7.12502
rthumb 4.4631 6.31506
lclavicle 1.10108e-014 -3.57812e-015
lhumerus -23.976 5.03545 87.8756
lradius 11.7929
lwrist -11.2663
lhand -11.4218 45.0436
lfingers 7.12502
lthumb 14.6141 74.5087
rfemur -4.4543 4.44411 14.3916
rtibia 19.581
rfoot -13.0709 -19.9545
rtoes -18.1516
lfemur -10.6122 -6.14965 -16.0162
ltibia 28.105
lfoot -22.4621 14.0636
ltoes -15.4244
